# xmcd
#
# Track frame offsets:
#	150
#	15489
#	30992
#	44898
#	60016
#	80000
#	91350
#	106357
#	119702
#	135358
#	151115
#	168499
#	180797
#	202577
#	217382
#	234784
#	247121
#	261154
#	279234
#	300406
#	317247
#
# Disc length: 4609 seconds
# Revision: 1
# Processed by: cddbd v1.5.2PL0 Copyright (c) Steve Scherf et al.
# Submitted via: dBpowerAMP V12.0
#
DISCID=0e11ff15
DTITLE=Various Artist - FAT Favorites 3 [CD3 of 27)
DYEAR=1978
DGENRE=Country
TTITLE0=Jill Croston - Good Time Mama
TTITLE1=Marshall Chapman - Somewhere South of Macon
TTITLE2=Willie and Tracy Nelson - After the Fire is Gone
TTITLE3=Jonathan Edwards - Have Yourself a Good Time for Me
TTITLE4=Jerry Jeff Walker and Carole King - I'll Be Your San Antonio Rose
TTITLE5=Tanya Tucker - It's a Cowboy Lovin' Night
TTITLE6=Carlene Carter and Dave Edmunds - Baby Ride Easy
TTITLE7=Jill Croston - Burnin' Love
TTITLE8=Hoyt Axton - Evangelina
TTITLE9=Bill and Bonnie Hearne - Tequila After Midnight
TTITLE10=Linda Hargrove - Mexican Love Songs
TTITLE11=Bonnie Raitt - Youe Sweet and Shiney Eyes
TTITLE12=Lawrence Hammond - Light as a Coyote's Dream
TTITLE13=Hoyt Axton and Tanya Tucker - You Taught Me How to Cry
TTITLE14=Roly Salley - Killin' the Blues
TTITLE15=Linda Hargrove - Love Was
TTITLE16=The Seldom Scene and Lnda Ronstadt - Keep Me From Blowin' Away
TTITLE17=Fraser and DeBolt - Them Dance Hall Girls
TTITLE18=Lee Clayton - If You Can Touch Her at All
TTITLE19=Gene Watson - Nothing Sure Looked Good on You
TTITLE20=Rosalie Sorrels - Traveling Lady
EXTD=
EXTT0=
EXTT1=
EXTT2=
EXTT3=
EXTT4=
EXTT5=
EXTT6=
EXTT7=
EXTT8=
EXTT9=
EXTT10=
EXTT11=
EXTT12=
EXTT13=
EXTT14=
EXTT15=
EXTT16=
EXTT17=
EXTT18=
EXTT19=
EXTT20=
PLAYORDER=
